<svg width="18" height="15" viewBox="0 0 18 15" fill="none" xmlns="http://www.w3.org/2000/svg">
<path d="M1.38927 6.36554C1.45832 6.35421 1.5282 6.34899 1.59811 6.34991H13.5031L13.2435 6.22789C12.9898 6.10652 12.7589 5.94134 12.5613 5.73983L9.22287 2.3661C8.78319 1.94195 8.70931 1.25962 9.0478 0.7494C9.44175 0.205708 10.1972 0.0876579 10.7353 0.485771C10.7788 0.517953 10.8201 0.553032 10.8589 0.59078L16.8959 6.69155C17.3677 7.16779 17.3681 7.94034 16.8968 8.41711C16.8965 8.41742 16.8962 8.41776 16.8959 8.41807L10.8589 14.5188C10.3867 14.9947 9.62225 14.9936 9.15137 14.5164C9.11432 14.4789 9.07972 14.4389 9.0478 14.3968C8.70931 13.8866 8.78319 13.2043 9.22287 12.7801L12.5553 9.40029C12.7324 9.22108 12.9361 9.07081 13.159 8.95493L13.5212 8.79021H1.66456C1.04777 8.81336 0.506624 8.37795 0.390751 7.76528C0.28401 7.10011 0.73105 6.47345 1.38927 6.36554Z" fill="white"/>
</svg>
